<?xml version="1.0" encoding="utf-8"?>
<!-- Uploaded to: SVG Repo, www.svgrepo.com, Generator: SVG Repo Mixer Tools -->
<svg width="800px" height="800px" viewBox="0 0 1024 1024" class="icon"  version="1.1" xmlns="http://www.w3.org/2000/svg"><path d="M218.1 181.2h597.3v24.9H218.1z" fill="#446EB1" /><path d="M218.1 206h572.4v597.3H218.1z" fill="#E1F0FF" /><path d="M790.5 181.2h24.9v647.1h-24.9zM218.1 181.2H243v647.1h-24.9z" fill="#446EB1" /><path d="M218.1 803.4h597.3v24.9H218.1z" fill="#446EB1" /><path d="M292.7 255.8h448v149.3h-448zM292.7 479.8h49.8v49.8h-49.8zM392.3 479.8h49.8v49.8h-49.8zM491.8 479.8h49.8v49.8h-49.8zM591.4 479.8h149.3v49.8H591.4zM591.4 579.4h149.3v149.3H591.4zM491.8 579.4h49.8v49.8h-49.8zM491.8 678.9h49.8v49.8h-49.8zM292.7 579.4H442v49.8H292.7zM292.7 678.9H442v49.8H292.7z" fill="#6D9EE8" /></svg>